<svg width="204" height="265" viewBox="0 0 204 265" fill="none" xmlns="http://www.w3.org/2000/svg">
<path d="M101.91 38.9799C114.221 38.9768 126.177 43.1043 135.865 50.7017C145.552 58.2991 152.41 68.9269 155.342 80.8841C158.273 92.8412 157.108 105.436 152.033 116.653C146.958 127.869 138.267 137.059 127.35 142.75C127.35 143.06 127.28 186 127.28 186C127.279 186.811 126.988 187.595 126.46 188.21C123.357 191.49 119.615 194.101 115.465 195.881C111.315 197.661 106.845 198.572 102.33 198.56C87.4198 198.56 77.0498 188.9 76.6098 188.48C76.2729 188.16 76.0043 187.776 75.8204 187.35C75.6365 186.923 75.541 186.464 75.5398 186C75.5398 186 75.5398 142.68 75.4198 142.17C64.7276 136.288 56.2951 127.018 51.4499 115.818C46.6046 104.618 45.6218 92.1242 48.6561 80.3043C51.6904 68.4843 58.5695 58.0092 68.2104 50.5279C77.8514 43.0466 89.7066 38.9841 101.91 38.9799V38.9799ZM82.6198 179.76L120.2 173.08V165.08L82.6198 171.93V179.76ZM82.6198 164.94L120.2 158.09V151.35L82.6198 157.87V164.94ZM101.29 96.5599C100.83 96.3155 100.389 96.0381 99.9698 95.7299C99.5538 96.038 99.116 96.3154 98.6598 96.5599C96.8557 97.4964 94.9039 98.1154 92.8898 98.3899C94.6198 110 95.3198 130.39 95.5898 141.57C95.6698 144.79 95.7098 147.26 95.7298 148.57L104.24 147.1C104.24 145.73 104.3 143.84 104.36 141.59C104.62 130.37 105.36 110.02 107.06 98.4099C105.044 98.1307 103.092 97.5048 101.29 96.5599V96.5599ZM102.93 86.4299C102.808 85.7346 102.445 85.1046 101.904 84.6505C101.364 84.1965 100.681 83.9476 99.9748 83.9476C99.2689 83.9476 98.5857 84.1965 98.0452 84.6505C97.5047 85.1046 97.1416 85.7346 97.0198 86.4299C97.0198 87.1599 97.7898 88.6399 99.9698 89.8299C102.16 88.6399 102.95 87.1599 102.93 86.4299V86.4299ZM80.8498 137.18L82.8498 138.13L82.7198 150.81L92.7198 149.09C92.7198 147.28 92.6298 144.67 92.5398 141.57C92.1998 129.14 91.3698 108.57 89.7898 98.4699C87.4268 98.3207 85.183 97.3801 83.4198 95.7999C81.3403 93.7424 80.0156 91.0436 79.6598 88.1399C79.2098 85.3699 80.0198 82.4699 81.6598 80.9299C83.2998 79.3899 86.4798 79.1499 89.2598 84.1499C90.6034 87.0461 91.5358 90.1157 92.0298 93.2699C93.3986 93.1455 94.7442 92.836 96.0298 92.3499C94.6006 90.5927 93.8643 88.373 93.9598 86.1099C94.0998 82.4099 96.9598 78.5799 100.02 78.5799C103.08 78.5799 105.95 82.4099 106.09 86.1099C106.181 88.374 105.441 90.5932 104.01 92.3499C105.296 92.8352 106.641 93.1447 108.01 93.2699C108.518 90.1116 109.471 87.0412 110.84 84.1499C113.61 79.1499 116.66 79.2899 118.43 80.9299C119.302 81.8925 119.938 83.0458 120.285 84.2977C120.632 85.5496 120.682 86.8654 120.43 88.1399C120.068 91.0418 118.744 93.7387 116.67 95.7999C114.902 97.3789 112.655 98.319 110.29 98.4699C108.71 108.61 107.89 129.14 107.54 141.57C107.49 143.42 107.45 145.11 107.42 146.57L120.24 144.36V138.5L122.24 137.56C132.103 132.95 140.106 125.125 144.935 115.368C149.764 105.61 151.133 94.5013 148.817 83.8636C146.501 73.2258 140.638 63.6914 132.189 56.8252C123.741 49.9589 113.209 46.1687 102.322 46.0766C91.4356 45.9845 80.8411 49.596 72.2775 56.3184C63.7139 63.0408 57.6899 72.4746 55.1943 83.0717C52.6986 93.6687 53.8796 104.799 58.5433 114.637C63.2069 124.474 71.0763 132.434 80.8598 137.21L80.8498 137.18ZM88.6998 93.1199C88.3314 91.2431 87.7231 89.4215 86.8898 87.6999C85.3398 84.8999 83.8898 84.7599 83.0898 85.4899C82.9112 85.6499 82.7708 85.848 82.6791 86.0696C82.5873 86.2912 82.5466 86.5305 82.5598 86.7699C82.7745 88.4733 83.5732 90.0495 84.8198 91.2299C85.9102 92.2114 87.2548 92.8664 88.6998 93.1199ZM111.25 93.1199C112.694 92.8643 114.038 92.2096 115.13 91.2299C116.373 90.0485 117.169 88.4722 117.38 86.7699C117.393 86.5305 117.352 86.2912 117.261 86.0696C117.169 85.848 117.028 85.6499 116.85 85.4899C116.06 84.7599 114.6 84.8999 113.05 87.6999C112.216 89.4204 111.611 91.2425 111.25 93.1199V93.1199Z" fill="#E9E9E9"/>
<path d="M3.08 251V222.8H13.56C18.28 222.8 21.92 224.013 24.48 226.44C27.0667 228.867 28.36 232.347 28.36 236.88C28.36 241.387 27.0667 244.867 24.48 247.32C21.92 249.773 18.28 251 13.56 251H3.08ZM8.2 246.76H13.24C19.7467 246.76 23 243.467 23 236.88C23 230.32 19.7467 227.04 13.24 227.04H8.2V246.76ZM39.5088 251.4C38.0954 251.4 36.8288 251.133 35.7088 250.6C34.6154 250.04 33.7488 249.293 33.1087 248.36C32.4954 247.427 32.1888 246.373 32.1888 245.2C32.1888 243.76 32.5621 242.627 33.3088 241.8C34.0554 240.947 35.2688 240.333 36.9488 239.96C38.6288 239.587 40.8821 239.4 43.7088 239.4H45.1088V238.56C45.1088 237.227 44.8154 236.267 44.2288 235.68C43.6421 235.093 42.6554 234.8 41.2688 234.8C40.1754 234.8 39.0554 234.973 37.9088 235.32C36.7621 235.64 35.6021 236.147 34.4288 236.84L32.9888 233.44C33.6821 232.96 34.4954 232.547 35.4288 232.2C36.3888 231.827 37.3888 231.547 38.4288 231.36C39.4954 231.147 40.4954 231.04 41.4288 231.04C44.2821 231.04 46.4021 231.707 47.7888 233.04C49.1754 234.347 49.8688 236.387 49.8688 239.16V251H45.1888V247.88C44.7354 248.973 44.0154 249.84 43.0288 250.48C42.0421 251.093 40.8688 251.4 39.5088 251.4ZM40.5488 247.96C41.8554 247.96 42.9354 247.507 43.7888 246.6C44.6688 245.693 45.1088 244.547 45.1088 243.16V242.28H43.7488C41.2421 242.28 39.4954 242.48 38.5088 242.88C37.5488 243.253 37.0688 243.947 37.0688 244.96C37.0688 245.84 37.3754 246.56 37.9888 247.12C38.6021 247.68 39.4554 247.96 40.5488 247.96ZM54.9438 251V231.44H59.8238V234.88C60.7838 232.56 62.8371 231.28 65.9838 231.04L67.5038 230.92L67.8238 235.16L64.9438 235.44C61.6638 235.76 60.0238 237.44 60.0238 240.48V251H54.9438ZM70.6078 251V222.8H75.6078V239.76H75.6878L83.5678 231.44H89.6078L80.7278 240.8L90.1678 251H84.0478L75.6878 242.28H75.6078V251H70.6078ZM103.394 251V222.8H107.674L117.674 241.24L127.634 222.8H131.834V251H127.194V232L119.114 246.72H116.114L108.034 232.08V251H103.394ZM146.481 251.4C144.454 251.4 142.694 250.987 141.201 250.16C139.708 249.333 138.548 248.16 137.721 246.64C136.894 245.093 136.481 243.28 136.481 241.2C136.481 239.12 136.894 237.32 137.721 235.8C138.548 234.28 139.708 233.107 141.201 232.28C142.694 231.453 144.454 231.04 146.481 231.04C148.508 231.04 150.268 231.453 151.761 232.28C153.254 233.107 154.414 234.28 155.241 235.8C156.068 237.32 156.481 239.12 156.481 241.2C156.481 243.28 156.068 245.093 155.241 246.64C154.414 248.16 153.254 249.333 151.761 250.16C150.268 250.987 148.508 251.4 146.481 251.4ZM146.481 247.6C147.974 247.6 149.174 247.067 150.081 246C150.988 244.907 151.441 243.307 151.441 241.2C151.441 239.067 150.988 237.48 150.081 236.44C149.174 235.373 147.974 234.84 146.481 234.84C144.988 234.84 143.788 235.373 142.881 236.44C141.974 237.48 141.521 239.067 141.521 241.2C141.521 243.307 141.974 244.907 142.881 246C143.788 247.067 144.988 247.6 146.481 247.6ZM168.128 251.4C166.421 251.4 164.914 250.987 163.608 250.16C162.328 249.333 161.328 248.16 160.608 246.64C159.888 245.093 159.528 243.28 159.528 241.2C159.528 239.093 159.888 237.293 160.608 235.8C161.328 234.28 162.328 233.107 163.608 232.28C164.914 231.453 166.421 231.04 168.128 231.04C169.514 231.04 170.768 231.347 171.888 231.96C173.008 232.573 173.848 233.387 174.408 234.4V222.8H179.408V251H174.528V247.76C173.994 248.88 173.154 249.773 172.008 250.44C170.861 251.08 169.568 251.4 168.128 251.4ZM169.528 247.6C171.021 247.6 172.221 247.067 173.128 246C174.034 244.907 174.488 243.307 174.488 241.2C174.488 239.067 174.034 237.48 173.128 236.44C172.221 235.373 171.021 234.84 169.528 234.84C168.034 234.84 166.834 235.373 165.928 236.44C165.021 237.48 164.568 239.067 164.568 241.2C164.568 243.307 165.021 244.907 165.928 246C166.834 247.067 168.034 247.6 169.528 247.6ZM194.232 251.4C192.019 251.4 190.112 250.987 188.512 250.16C186.912 249.333 185.672 248.16 184.792 246.64C183.939 245.12 183.512 243.32 183.512 241.24C183.512 239.213 183.926 237.44 184.752 235.92C185.606 234.4 186.766 233.213 188.232 232.36C189.726 231.48 191.419 231.04 193.312 231.04C196.086 231.04 198.272 231.92 199.872 233.68C201.499 235.44 202.312 237.84 202.312 240.88V242.36H188.312C188.686 245.853 190.686 247.6 194.312 247.6C195.406 247.6 196.499 247.44 197.592 247.12C198.686 246.773 199.686 246.24 200.592 245.52L201.992 248.88C201.059 249.653 199.886 250.267 198.472 250.72C197.059 251.173 195.646 251.4 194.232 251.4ZM193.512 234.44C192.046 234.44 190.859 234.893 189.952 235.8C189.046 236.707 188.499 237.933 188.312 239.48H198.152C198.046 237.853 197.592 236.613 196.792 235.76C196.019 234.88 194.926 234.44 193.512 234.44Z" fill="#E9E9E9"/>
</svg>
