<svg width="25" height="18" viewBox="0 0 25 18" fill="none" xmlns="http://www.w3.org/2000/svg">
<path d="M22.7857 0.526794H2.21429C1.75963 0.526794 1.32359 0.706586 1.0021 1.02662C0.680612 1.34665 0.5 1.78071 0.5 2.2333V15.8853C0.5 16.3379 0.680612 16.772 1.0021 17.092C1.32359 17.4121 1.75963 17.5918 2.21429 17.5918H22.7857C23.2404 17.5918 23.6764 17.4121 23.9979 17.092C24.3194 16.772 24.5 16.3379 24.5 15.8853V2.2333C24.5 1.78071 24.3194 1.34665 23.9979 1.02662C23.6764 0.706586 23.2404 0.526794 22.7857 0.526794V0.526794ZM20.9 2.2333L12.5 8.01835L4.1 2.2333H20.9ZM2.21429 15.8853V3.00976L12.0114 9.75899C12.1549 9.85807 12.3254 9.91117 12.5 9.91117C12.6746 9.91117 12.8451 9.85807 12.9886 9.75899L22.7857 3.00976V15.8853H2.21429Z" fill="white"/>
</svg>
