<svg width="25" height="24" viewBox="0 0 25 24" fill="none" xmlns="http://www.w3.org/2000/svg">
<path d="M24.4385 12.0195C24.4385 5.37949 19.0632 0 12.4385 0C5.80923 0 0.438477 5.37949 0.438477 12.0195C0.438477 18.0173 4.82523 22.9904 10.5635 23.8911V15.4947H7.51623V12.0203H10.5635V9.37073C10.5635 6.35908 12.3522 4.69588 15.0942 4.69588C16.4075 4.69588 17.7822 4.93026 17.7822 4.93026V7.88782H16.2665C14.7785 7.88782 14.3135 8.81557 14.3135 9.76587V12.0195H17.6412L17.1065 15.4939H14.3135V23.8903C20.0472 22.9896 24.4385 18.0165 24.4385 12.0188V12.0195Z" fill="white"/>
</svg>
