<svg width="1979" height="1120" viewBox="0 0 1979 1120" fill="none" xmlns="http://www.w3.org/2000/svg">
<path d="M421.33 1108.33C467.925 1126.12 497.858 1127.25 527.227 1085.45C550.666 1052.41 567.609 1032.36 605.732 1012.6C641.596 993.959 677.177 983.51 720.383 989.723C765.566 995.935 801.148 1012.88 844.636 986.052C885.301 960.919 902.527 932.115 953.922 958.095C991.198 976.733 1013.51 1002.71 1058.41 1004.41C1153.86 1007.8 1174.47 912.63 1242.81 873.377C1299.29 840.619 1310.58 890.885 1350.12 915.453C1388.24 939.174 1444.72 928.443 1481.71 907.829C1557.96 865.188 1633.36 761.832 1725.42 751.101C1809.85 741.217 1888.08 842.596 1978.16 788.377C1944.84 776.799 1908.97 758.726 1879.89 738.676C1860.12 777.363 1814.09 727.098 1789.52 718.626C1757.61 707.33 1713.28 692.081 1676.85 695.187C1591.56 702.247 1562.2 769.456 1495.83 811.815C1462.79 832.995 1415.35 841.467 1377.51 826.5C1341.08 812.098 1332.05 767.197 1293.08 761.267C1226.15 750.819 1143.12 851.35 1101.33 890.603C1024.8 962.331 974.254 830.736 888.124 844.855C848.59 851.35 826.845 878.46 782.792 882.696C740.433 886.932 704.005 886.085 666.164 905.005C620.981 927.596 581.164 958.659 534.569 978.709C498.705 993.959 408.905 1034.34 375.3 1007.23L421.33 1108.33Z" fill="#C9312E" fill-opacity="0.5"/>
<path d="M353.838 951.036C423.589 958.096 517.908 893.993 586.247 869.989C664.187 842.597 756.53 794.026 841.812 788.66C936.131 782.73 1015.48 832.996 1104.44 777.929C1137.48 757.597 1158.09 713.262 1201.58 712.697C1228.97 712.414 1221.35 723.71 1244.5 733.029C1262.29 740.089 1292.51 736.135 1311.43 735.006C1354.07 732.182 1395.02 722.581 1433.42 705.637C1467.59 690.67 1496.4 663.843 1533.39 654.242C1620.09 631.933 1696.9 647.747 1766.37 694.341C1790.37 710.438 1805.9 716.933 1835.55 707.331C1827.93 693.494 1810.98 682.481 1797.43 672.88C1777.66 658.76 1768.91 661.301 1751.68 656.501C1712.71 645.487 1698.59 610.471 1657.64 598.893C1574.62 575.454 1483.97 596.633 1409.99 629.956C1352.38 655.654 1275.28 675.703 1212.88 684.74C1198.76 647.464 1162.61 635.039 1126.18 655.371C1082.41 679.657 1068.29 704.507 1015.2 712.979C924.836 727.664 831.081 728.511 742.41 748.843C668.706 765.504 590.483 782.73 518.473 801.933C460.865 817.182 362.31 832.714 318.539 870.554L353.838 951.036Z" fill="#C9312E" fill-opacity="0.5"/>
<path d="M283.523 796.285C328.705 793.744 377.277 761.833 421.33 751.385C466.795 740.372 511.696 736.418 555.749 722.298C643.855 693.777 729.42 696.883 823.739 687.564C870.052 683.046 916.082 672.315 959.288 655.089C995.716 640.687 1021.98 613.577 1056.43 596.634C1070.83 589.574 1096.81 579.125 1112.63 581.102C1138.61 583.926 1126.75 597.763 1145.38 608.212C1173.34 623.743 1245.07 608.494 1274.72 603.976C1389.09 586.468 1488.21 545.521 1609.07 539.873C1556.27 471.252 1463.92 489.607 1385.14 504.856C1337.13 514.175 1289.69 528.577 1241.96 537.896C1209.21 544.391 1140.87 570.936 1109.8 563.311C1069.14 553.428 1076.76 509.375 1018.03 530.272C979.902 543.826 944.039 567.83 905.351 581.667C818.939 611.883 721.231 628.544 629.171 637.016C558.29 643.511 483.174 638.428 415.965 659.607C358.639 677.68 307.808 726.252 248.506 730.77L283.523 796.285Z" fill="#C9312E" fill-opacity="0.5"/>
<path d="M842.5 521.799C871.586 516.999 899.42 502.879 927.659 493.843C953.639 485.371 986.397 461.932 1013.22 461.367C1039.49 460.803 1022.26 469.274 1039.49 479.441C1051.63 486.5 1071.68 485.088 1085.52 485.653C1120.82 486.783 1157.24 486.783 1190.85 479.441C1289.69 457.979 1405.75 398.676 1502.33 456.849C1493.01 440.753 1460.53 414.49 1443.31 402.347C1417.89 384.274 1383.72 377.497 1352.66 377.214C1286.3 376.65 1219.09 408.56 1158.09 430.022C1128.44 440.47 1096.81 450.354 1064.9 451.484C1048.81 452.048 1033.27 451.201 1020.28 441.882C1010.12 434.54 1005.88 415.337 995.433 409.972C972.277 398.394 926.247 425.786 902.809 432.846C871.463 442.165 838.988 450.354 811.313 466.168C804.254 470.122 809.777 466.973 803 471.209L840.5 522.709" fill="#C9312E" fill-opacity="0.5"/>
<path d="M762 415.209C799.558 414.927 811.031 409.69 841.812 390.205C875.416 369.025 887.277 366.766 923.141 371.567C984.702 380.039 1070.27 375.52 1129.85 363.66C1174.19 354.623 1214.85 334.291 1259.47 329.773C1304.65 325.254 1342.78 337.397 1384.85 340.786C1378.92 301.251 1367.34 294.756 1328.37 288.261C1294.49 282.613 1266.81 267.646 1231.23 268.776C1167.97 271.035 1100.77 315.088 1038.92 331.185C993.174 343.045 936.131 322.713 891.513 338.809C878.805 324.407 879.087 314.241 860.732 316.218C849.154 317.347 828.257 333.444 816.679 337.68C781.38 350.387 758 351.209 724 363.209" fill="#C9312E" fill-opacity="0.5"/>
<path d="M682.5 306.209C746.885 279.099 792.111 260.868 863.839 275.552C898.008 282.329 940.085 292.213 976.231 289.954C1010.4 287.695 1037.79 272.728 1067.73 258.044C1159.22 213.708 1256.93 192.246 1340.23 263.127C1336 197.612 1271.61 163.16 1210.9 152.994C1176.73 147.346 1145.1 143.392 1111.78 158.924C1080.43 173.608 1054.45 192.246 1020.57 204.107C989.503 214.838 956.746 225.286 923.423 223.309C905.633 222.18 889.254 215.685 870.898 215.685C854.237 215.685 824.868 220.203 808.207 217.662C770.367 211.731 794.088 197.612 742.41 209.19C712.476 215.967 672.734 226.289 645.625 240.973C643.083 242.385 639.977 244.079 638 245.209" fill="#C9312E" fill-opacity="0.5"/>
<path d="M593.5 184.209C655.626 161.053 693.838 123.343 762.459 143.111C798.888 153.559 816.961 156.101 851.413 146.499C884.735 137.18 911.563 153.277 946.579 148.476C1007.58 140.004 1058.12 100.752 1116.58 85.7848C1142.28 79.2898 1181.53 75.9011 1207.79 82.3961C1234.9 89.1736 1250.72 111.765 1274.15 123.908C1275.57 104.14 1254.1 65.4526 1243.66 47.9443C1225.02 16.0339 1196.78 6.99733 1160.92 2.19666C1096.53 -6.27511 1022.83 13.21 968.606 43.9908C939.802 60.3695 913.257 78.4426 877.393 74.4891C842.659 70.818 815.267 62.3463 778.273 68.5589C763.589 71.1004 743.539 78.725 728.007 73.9244C713.323 69.4061 710.499 53.8745 691.014 53.3097C664.752 52.4625 624.652 78.725 602.343 90.0207C582.011 100.187 569.309 112.584 547 120.209" fill="#C9312E" fill-opacity="0.5"/>
<path d="M1269.92 122.495C1295.05 145.934 1295.9 177.844 1332.61 194.788C1366.5 210.32 1409.99 218.509 1447.83 217.379C1447.54 195.353 1446.13 172.479 1442.18 150.17C1371.86 148.758 1295.05 171.914 1267.94 90.3027" fill="#C9312E" fill-opacity="0.5"/>
<path d="M1333.74 256.631C1354.35 272.728 1357.74 301.814 1376.1 319.605C1392.48 335.701 1432.58 335.984 1455.17 331.465C1453.19 313.957 1452.35 297.296 1449.24 279.223C1424.39 280.635 1396.43 287.695 1373.28 280.07C1351.53 273.01 1338.82 246.465 1326.68 229.804" fill="#C9312E" fill-opacity="0.5"/>
<path d="M1378.08 326.1C1404.34 318.758 1419.02 394.157 1459.12 369.306C1462.79 388.509 1487.93 406.3 1504.87 415.619C1472.39 432.28 1450.93 415.336 1430.6 389.074C1422.13 378.06 1407.16 355.187 1395.3 347.28C1382.59 338.525 1384.85 342.479 1372.99 332.878" fill="#C9312E" fill-opacity="0.5"/>
<path d="M1497.81 454.307C1518.99 460.519 1532.54 488.758 1553.72 497.795C1572.36 505.702 1622.06 501.184 1638.44 490.735C1624.04 485.087 1611.05 478.31 1598.91 468.991C1594.39 465.32 1588.74 457.978 1583.66 455.719C1575.18 452.047 1569.25 456.283 1559.65 458.26C1523.51 465.32 1505.43 453.459 1478.32 431.998C1476.07 430.021 1473.24 428.044 1471.55 426.067" fill="#C9312E" fill-opacity="0.5"/>
<path d="M1618.11 545.519C1637.88 553.426 1671.76 551.166 1690.68 544.671C1701.7 565.004 1716.95 587.313 1732.48 604.256C1684.75 620.635 1649.17 569.804 1618.11 545.519Z" fill="#C9312E" fill-opacity="0.5"/>
<path d="M0 143.393C33.8871 141.417 59.5848 145.088 93.1895 135.204C124.535 126.167 158.14 122.779 190.05 131.533C256.695 149.888 310.349 167.961 382.077 160.337C433.472 154.971 498.14 136.898 547.277 120.52L843.789 527.165C843.789 527.165 709.087 580.537 619.851 576.866C619.851 576.866 243.422 603.411 224.22 670.055L0 143.393Z" fill="#323593" fill-opacity="0.5"/>
<path d="M85.5645 200.436L69.7505 202.413L62.4083 216.533L55.6309 202.131L39.8169 199.589L51.395 188.576L48.8534 172.762L62.9731 180.386L77.0927 173.326L74.2688 188.858L85.5645 200.436Z" fill="white" fill-opacity="0.5"/>
<path d="M134.136 300.402L118.605 304.073L113.804 319.323L104.485 305.485L88.3887 304.638L97.99 292.213L92.9069 276.681L108.156 282.894L121.146 273.857L120.864 290.236L134.136 300.402Z" fill="white" fill-opacity="0.5"/>
<path d="M175.083 389.639L159.269 392.745L153.904 407.43L145.15 393.31L129.053 391.616L139.502 379.755L135.266 363.941L149.95 370.719L163.505 362.812L162.376 378.908L175.083 389.639Z" fill="white" fill-opacity="0.5"/>
<path d="M220.266 494.689L204.452 495.536L196.545 509.373L190.333 493.842L174.801 489.888L186.662 479.722L184.967 463.343L198.522 472.38L212.924 466.45L209.536 482.264L220.266 494.689Z" fill="white" fill-opacity="0.5"/>
<path d="M262.907 596.349L247.376 600.02L242.575 615.27L233.256 601.432L217.16 600.585L226.761 588.16L221.96 572.628L237.21 578.841L250.2 570.087L249.635 586.183L262.907 596.349Z" fill="white" fill-opacity="0.5"/>
<path d="M380.383 559.357L365.698 565.57L362.874 581.102L351.861 568.959L335.765 570.371L343.389 556.816L336.047 542.131L352.143 545.803L363.722 535.354L365.698 551.45L380.383 559.357Z" fill="white" fill-opacity="0.5"/>
<path d="M412.01 502.312L397.326 508.525L394.784 524.057L383.488 511.914L367.392 513.326L375.299 499.771L367.957 485.086L383.771 488.758L395.349 478.309L397.326 494.405L412.01 502.312Z" fill="white" fill-opacity="0.5"/>
<path d="M436.861 444.141L422.177 450.354L419.635 465.885L408.34 453.742L392.243 455.154L400.15 441.6L392.808 426.915L408.622 430.586L420.2 420.138L422.459 435.952L436.861 444.141Z" fill="white" fill-opacity="0.5"/>
<path d="M464.819 396.135L450.134 402.066L447.593 417.597L436.297 405.454L420.201 406.866L428.108 393.311L420.483 378.627L436.579 382.581L448.158 371.85L450.134 387.946L464.819 396.135Z" fill="white" fill-opacity="0.5"/>
<path d="M483.739 351.798L469.054 357.729L466.513 373.26L455.217 361.117L439.121 362.529L447.028 348.974L439.685 334.29L455.499 338.244L467.077 327.513L469.337 343.609L483.739 351.798Z" fill="white" fill-opacity="0.5"/>
<path d="M507.741 308.592L493.057 314.523L490.515 330.337L479.502 317.911L463.406 319.606L471.03 305.768L463.688 291.084L479.785 295.038L491.363 284.307L493.339 300.403L507.741 308.592Z" fill="white" fill-opacity="0.5"/>
<path d="M532.027 267.928L517.343 274.14L514.519 289.672L503.506 277.529L487.409 278.941L495.034 265.386L487.692 250.702L503.788 254.373L515.366 243.924L517.343 259.738L532.027 267.928Z" fill="white" fill-opacity="0.5"/>
<path d="M557.16 230.087L542.476 236.017L539.934 251.548L528.921 239.406L512.824 240.817L520.449 227.263L513.107 212.578L529.203 216.532L540.781 205.801L542.758 221.897L557.16 230.087Z" fill="white" fill-opacity="0.5"/>
<path d="M556.031 174.174L541.346 180.104L538.805 195.918L527.509 183.493L511.413 185.187L519.32 171.35L511.977 156.666L527.791 160.619L539.369 149.888L541.629 165.985L556.031 174.174Z" fill="white" fill-opacity="0.5"/>
<path d="M613.074 257.763L598.39 263.975L595.848 279.507L584.553 267.364L568.456 268.776L576.363 255.221L569.021 240.537L584.835 244.208L596.413 233.759L598.672 249.573L613.074 257.763Z" fill="white" fill-opacity="0.5"/>
<path d="M595.284 303.508L580.599 309.438L578.058 325.252L566.762 312.827L550.666 314.521L558.573 300.684L551.23 286L567.327 289.953L578.622 279.222L580.882 295.319L595.284 303.508Z" fill="white" fill-opacity="0.5"/>
<path d="M571.28 350.386L556.596 356.317L554.054 372.131L542.759 359.705L526.662 361.4L534.569 347.845L527.227 332.878L543.041 336.832L554.619 326.101L556.878 342.197L571.28 350.386Z" fill="white" fill-opacity="0.5"/>
<path d="M554.619 396.135L539.934 402.066L537.393 417.88L526.38 405.454L510.283 406.866L517.908 393.311L510.566 378.627L526.662 382.581L538.24 371.85L540.217 387.946L554.619 396.135Z" fill="white" fill-opacity="0.5"/>
<path d="M530.615 439.624L515.648 445.554L513.107 461.368L502.093 448.943L485.997 450.637L493.622 436.8L486.279 422.115L502.376 426.069L513.954 415.338L515.931 431.434L530.615 439.624Z" fill="white" fill-opacity="0.5"/>
<path d="M511.413 492.713L496.729 498.926L494.187 514.457L482.892 502.314L466.795 503.726L474.702 490.171L467.36 475.487L483.457 479.158L494.752 468.709L497.011 484.806L511.413 492.713Z" fill="white" fill-opacity="0.5"/>
<path d="M485.997 547.215L471.313 553.427L468.771 568.959L457.758 556.816L441.662 558.228L449.286 544.673L441.944 529.989L458.04 533.942L469.619 523.211L471.595 539.308L485.997 547.215Z" fill="white" fill-opacity="0.5"/>
<path d="M585.117 527.164L570.433 533.094L567.609 548.626L556.595 536.483L540.499 537.895L548.124 524.34L540.781 509.655L556.878 513.609L568.456 502.878L570.433 518.974L585.117 527.164Z" fill="white" fill-opacity="0.5"/>
<path d="M606.579 477.745L591.895 483.675L589.353 499.207L578.057 487.064L561.961 488.476L569.868 474.921L562.526 460.236L578.34 464.19L589.918 453.459L592.177 469.555L606.579 477.745Z" fill="white" fill-opacity="0.5"/>
<path d="M622.958 428.045L608.273 434.258L605.732 449.789L594.436 437.646L578.622 439.058L586.247 425.503L578.904 410.819L595.001 414.49L606.579 404.042L608.556 420.138L622.958 428.045Z" fill="white" fill-opacity="0.5"/>
<path d="M644.702 382.578L630.018 388.508L627.194 404.322L616.18 391.897L600.084 393.592L607.709 379.754L600.366 365.07L616.463 369.023L628.041 358.292L630.018 374.389L644.702 382.578Z" fill="white" fill-opacity="0.5"/>
<path d="M661.081 336.832L646.397 343.045L643.855 358.576L632.559 346.151L616.463 347.845L624.37 334.29L617.028 319.606L632.842 323.277L644.42 312.829L646.679 328.643L661.081 336.832Z" fill="white" fill-opacity="0.5"/>
<path d="M673.789 521.234L659.105 527.164L656.281 542.695L645.267 530.553L629.171 531.964L636.795 518.41L629.453 503.725L645.55 507.679L657.128 496.948L659.105 513.044L673.789 521.234Z" fill="white" fill-opacity="0.5"/>
<path d="M693.273 462.214L678.589 468.144L676.047 483.958L664.751 471.533L648.655 473.227L656.562 459.39L649.22 444.706L665.316 448.659L676.612 437.928L678.871 454.025L693.273 462.214Z" fill="white" fill-opacity="0.5"/>
<path d="M713.323 404.89L698.639 410.82L696.097 426.634L685.084 414.209L668.988 415.903L676.612 402.348L669.27 387.381L685.367 391.335L696.945 380.604L698.921 396.7L713.323 404.89Z" fill="white" fill-opacity="0.5"/>
<path d="M760.765 487.913L746.081 493.843L743.539 509.375L732.244 497.232L716.147 498.644L724.054 485.089L716.712 470.404L732.808 474.358L744.104 463.627L746.363 479.723L760.765 487.913Z" fill="white" fill-opacity="0.5"/>
<path d="M302.16 526.6L286.628 530.271L281.827 545.52L272.508 531.683L256.412 530.836L266.296 518.411L261.213 502.879L276.462 509.092L289.452 500.337L289.17 516.434L302.16 526.6Z" fill="white" fill-opacity="0.5"/>
<path d="M330.117 461.931L314.585 465.602L309.784 480.851L300.466 467.014L284.369 466.167L293.97 453.742L289.17 438.21L304.137 444.423L317.409 435.668L316.844 451.765L330.117 461.931Z" fill="white" fill-opacity="0.5"/>
<path d="M357.79 416.467L342.541 420.138L337.458 435.105L328.422 421.267L312.325 420.42L321.927 408.277L316.843 392.463L332.093 398.676L345.083 389.922L344.8 406.018L357.79 416.467Z" fill="white" fill-opacity="0.5"/>
<path d="M385.748 365.636L370.499 369.307L365.416 384.556L356.379 370.719L340 369.59L349.884 357.447L344.801 341.633L360.05 348.128L373.04 339.374L372.758 355.47L385.748 365.636Z" fill="white" fill-opacity="0.5"/>
<path d="M413.422 318.475L398.173 322.146L393.09 337.395L384.054 323.558L367.675 322.429L377.559 310.286L372.475 294.472L387.725 300.967L400.715 291.93L400.432 308.309L413.422 318.475Z" fill="white" fill-opacity="0.5"/>
<path d="M439.121 273.012L423.589 276.965L418.788 291.932L409.469 278.095L393.373 277.247L403.257 264.822L398.174 249.291L413.423 255.503L426.413 246.749L425.848 262.845L439.121 273.012Z" fill="white" fill-opacity="0.5"/>
<path d="M466.794 225.851L451.263 229.522L446.462 244.771L437.143 230.934L421.047 230.087L430.931 217.661L425.848 202.13L441.097 208.343L454.087 199.588L453.522 215.685L466.794 225.851Z" fill="white" fill-opacity="0.5"/>
<path d="M489.668 176.432L474.137 180.104L469.336 195.353L460.017 181.516L443.921 180.668L453.522 168.243L448.722 152.711L463.688 158.924L476.678 150.17L476.396 166.266L489.668 176.432Z" fill="white" fill-opacity="0.5"/>
<path d="M251.329 436.518L235.515 436.235L227.044 449.508L221.396 433.976L206.146 428.893L218.572 419.574L217.725 403.195L230.715 413.079L245.681 407.714L241.163 423.245L251.329 436.518Z" fill="white" fill-opacity="0.5"/>
<path d="M284.369 377.213L268.272 378.343L261.213 392.463L254.153 377.496L238.339 374.107L249.917 363.376L247.375 347.28L261.495 355.752L275.615 348.974L272.791 365.071L284.369 377.213Z" fill="white" fill-opacity="0.5"/>
<path d="M312.891 334.574L297.077 333.727L288.323 347L283.24 330.903L267.991 325.538L280.698 316.501L280.416 300.123L293.124 310.289L308.09 305.488L303.29 321.02L312.891 334.574Z" fill="white" fill-opacity="0.5"/>
<path d="M341.977 284.589L325.881 285.154L317.974 298.709L311.761 283.177L296.229 278.941L308.372 269.057L306.96 252.679L320.515 261.998L334.917 256.067L331.246 271.881L341.977 284.589Z" fill="white" fill-opacity="0.5"/>
<path d="M372.476 243.925L356.662 244.49L348.755 258.327L342.543 242.796L326.729 238.56L338.871 228.676L337.177 212.297L350.732 221.334L365.134 215.404L361.745 231.218L372.476 243.925Z" fill="white" fill-opacity="0.5"/>
<path d="M406.08 199.59L390.549 201.849L384.054 216.251L376.147 201.567L360.333 199.025L371.346 187.73L367.957 171.633L382.359 179.54L396.196 172.198L394.22 188.012L406.08 199.59Z" fill="white" fill-opacity="0.5"/>
<path d="M207.276 335.137L192.591 341.632L190.332 357.164L178.754 345.304L162.94 346.998L170.282 333.161L162.658 318.759L178.754 322.147L190.05 311.417L192.591 327.23L207.276 335.137Z" fill="white" fill-opacity="0.5"/>
<path d="M240.034 282.047L224.784 286.566L220.548 301.815L210.665 288.542L194.568 288.26L203.605 275.552L197.957 260.303L213.489 265.669L225.914 256.35L226.479 272.446L240.034 282.047Z" fill="white" fill-opacity="0.5"/>
<path d="M263.472 236.866L247.941 240.537L243.14 255.786L233.821 241.949L217.725 241.101L227.326 228.959L222.243 213.145L237.492 219.357L250.482 210.603L250.2 226.699L263.472 236.866Z" fill="white" fill-opacity="0.5"/>
<path d="M298.489 187.73L284.087 194.225L281.827 210.039L270.249 198.178L254.153 200.155L261.778 186.318L253.871 171.916L269.967 175.304L281.263 164.291L283.804 180.105L298.489 187.73Z" fill="white" fill-opacity="0.5"/>
<path d="M169.153 240.819L153.621 243.643L147.973 258.61L139.502 244.208L123.405 242.796L133.571 230.935L129.336 214.839L144.302 221.899L157.575 213.709L156.445 229.806L169.153 240.819Z" fill="white" fill-opacity="0.5"/>
<path d="M204.169 181.232L188.92 185.186L184.402 200.435L174.8 186.88L158.704 186.315L168.023 173.89L162.658 158.358L178.189 164.289L190.897 154.97V171.349L204.169 181.232Z" fill="white" fill-opacity="0.5"/>
</svg>
