<svg width="297" height="297" viewBox="0 0 297 297" fill="none" xmlns="http://www.w3.org/2000/svg">
<path fill-rule="evenodd" clip-rule="evenodd" d="M148.5 297C230.514 297 297 230.515 297 148.5C297 66.4854 230.514 0 148.5 0C66.4856 0 0 66.4854 0 148.5C0 230.515 66.4856 297 148.5 297ZM121.983 121.975C128.945 115.013 138.387 111.102 148.233 111.102C158.079 111.102 167.522 115.013 174.484 121.975C181.446 128.938 185.357 138.38 185.357 148.226C185.357 158.071 181.446 167.515 174.484 174.477C167.522 181.438 158.079 185.35 148.233 185.35C138.387 185.35 128.945 181.438 121.983 174.477C115.021 167.515 111.109 158.071 111.109 148.226C111.109 138.38 115.021 128.938 121.983 121.975ZM131.179 165.271C135.702 169.795 141.837 172.335 148.233 172.335C154.63 172.335 160.764 169.795 165.287 165.271C169.81 160.749 172.351 154.614 172.351 148.218C172.351 141.821 169.81 135.687 165.287 131.164C160.764 126.641 154.63 124.1 148.233 124.1C141.837 124.1 135.702 126.641 131.179 131.164C126.656 135.687 124.115 141.821 124.115 148.218C124.115 154.614 126.656 160.749 131.179 165.271ZM186.827 118.392C191.606 118.392 195.481 114.517 195.481 109.736C195.481 104.957 191.606 101.082 186.827 101.082C182.047 101.082 178.172 104.957 178.172 109.736C178.172 114.517 182.047 118.392 186.827 118.392ZM208.41 88.1396C212.05 91.7783 214.89 96.1367 216.749 100.937C218.892 106.631 220.035 112.652 220.129 118.736C220.578 126.419 220.578 128.908 220.578 148.521C220.578 168.136 220.474 170.584 220.129 178.308C220.008 184.313 218.876 190.238 216.765 195.858C214.904 200.657 212.062 205.016 208.423 208.655C204.783 212.295 200.425 215.137 195.625 216.997C190.007 219.102 184.073 220.239 178.075 220.361C170.408 220.803 167.895 220.803 148.289 220.803C128.683 220.803 126.235 220.698 118.503 220.361C112.493 220.164 106.56 218.942 100.961 216.749C96.1602 214.891 91.8 212.052 88.1587 208.413C84.5176 204.774 81.6753 200.417 79.8135 195.617C77.7021 189.989 76.5701 184.064 76.4497 178.059C76 170.376 76 167.879 76 148.273C76 128.659 76.1045 126.211 76.4497 118.487C76.5669 112.488 77.7046 106.554 79.8135 100.937C81.6699 96.1357 84.5095 91.7764 88.1499 88.1367C91.7903 84.498 96.1511 81.6602 100.953 79.8057C106.563 77.6904 112.493 76.5508 118.487 76.4336C126.154 76 128.667 76 148.273 76C167.879 76 170.327 76.0967 178.059 76.4336C184.058 76.5566 189.992 77.6973 195.609 79.8057C200.41 81.6621 204.77 84.501 208.41 88.1396ZM204.473 191.017C206.073 186.676 206.918 182.092 206.97 177.465V177.473H207.058C207.403 169.798 207.403 167.694 207.403 148.137C207.403 128.571 207.315 126.428 206.97 118.792C206.895 114.217 206.051 109.688 204.473 105.393C203.266 102.27 201.42 99.4346 199.053 97.0674C196.686 94.7002 193.851 92.8545 190.728 91.6475C186.436 90.0508 181.9 89.2061 177.32 89.1504C169.557 88.709 167.55 88.709 147.984 88.709C128.418 88.709 126.275 88.8057 118.64 89.1504C114.063 89.2148 109.532 90.0596 105.24 91.6475C98.9055 94.0723 93.8877 99.0576 91.439 105.393C89.8384 109.731 88.9939 114.312 88.9421 118.937C88.5166 126.717 88.5166 128.716 88.5166 148.281C88.5166 167.839 88.5967 169.99 88.9421 177.617C89.0168 182.192 89.8608 186.723 91.439 191.017C92.6499 194.146 94.5042 196.984 96.8813 199.351C99.2588 201.717 102.106 203.558 105.24 204.754C109.53 206.351 114.063 207.194 118.64 207.251C126.411 207.692 128.41 207.692 147.984 207.692C167.542 207.692 169.693 207.604 177.32 207.251C181.899 207.191 186.435 206.348 190.728 204.754C193.851 203.55 196.687 201.706 199.054 199.34C201.421 196.975 203.267 194.139 204.473 191.017Z" fill="white"/>
</svg>
