<svg width="210" height="259" viewBox="0 0 210 259" fill="none" xmlns="http://www.w3.org/2000/svg">
<path d="M104.91 38.9799C117.221 38.9768 129.177 43.1043 138.865 50.7017C148.552 58.2991 155.41 68.9269 158.342 80.8841C161.273 92.8412 160.108 105.436 155.033 116.653C149.958 127.869 141.267 137.059 130.35 142.75C130.35 143.06 130.28 186 130.28 186C130.279 186.811 129.988 187.595 129.46 188.21C126.357 191.49 122.615 194.101 118.465 195.881C114.315 197.661 109.845 198.572 105.33 198.56C90.4198 198.56 80.0498 188.9 79.6098 188.48C79.2729 188.16 79.0043 187.776 78.8204 187.35C78.6365 186.923 78.541 186.464 78.5398 186C78.5398 186 78.5398 142.68 78.4198 142.17C67.7276 136.288 59.2951 127.018 54.4499 115.818C49.6046 104.618 48.6218 92.1242 51.6561 80.3043C54.6904 68.4843 61.5695 58.0092 71.2104 50.5279C80.8514 43.0466 92.7066 38.9841 104.91 38.9799V38.9799ZM85.6198 179.76L123.2 173.08V165.08L85.6198 171.93V179.76ZM85.6198 164.94L123.2 158.09V151.35L85.6198 157.87V164.94ZM104.29 96.5599C103.83 96.3155 103.389 96.0381 102.97 95.7299C102.554 96.038 102.116 96.3154 101.66 96.5599C99.8557 97.4964 97.9039 98.1154 95.8898 98.3899C97.6198 110 98.3198 130.39 98.5898 141.57C98.6698 144.79 98.7098 147.26 98.7298 148.57L107.24 147.1C107.24 145.73 107.3 143.84 107.36 141.59C107.62 130.37 108.36 110.02 110.06 98.4099C108.044 98.1307 106.092 97.5048 104.29 96.5599V96.5599ZM105.93 86.4299C105.808 85.7346 105.445 85.1046 104.904 84.6505C104.364 84.1965 103.681 83.9476 102.975 83.9476C102.269 83.9476 101.586 84.1965 101.045 84.6505C100.505 85.1046 100.142 85.7346 100.02 86.4299C100.02 87.1599 100.79 88.6399 102.97 89.8299C105.16 88.6399 105.95 87.1599 105.93 86.4299V86.4299ZM83.8498 137.18L85.8498 138.13L85.7198 150.81L95.7198 149.09C95.7198 147.28 95.6298 144.67 95.5398 141.57C95.1998 129.14 94.3698 108.57 92.7898 98.4699C90.4268 98.3207 88.183 97.3801 86.4198 95.7999C84.3403 93.7424 83.0156 91.0436 82.6598 88.1399C82.2098 85.3699 83.0198 82.4699 84.6598 80.9299C86.2998 79.3899 89.4798 79.1499 92.2598 84.1499C93.6034 87.0461 94.5358 90.1157 95.0298 93.2699C96.3986 93.1455 97.7442 92.836 99.0298 92.3499C97.6006 90.5927 96.8643 88.373 96.9598 86.1099C97.0998 82.4099 99.9598 78.5799 103.02 78.5799C106.08 78.5799 108.95 82.4099 109.09 86.1099C109.181 88.374 108.441 90.5932 107.01 92.3499C108.296 92.8352 109.641 93.1447 111.01 93.2699C111.518 90.1116 112.471 87.0412 113.84 84.1499C116.61 79.1499 119.66 79.2899 121.43 80.9299C122.302 81.8925 122.938 83.0458 123.285 84.2977C123.632 85.5496 123.682 86.8654 123.43 88.1399C123.068 91.0418 121.744 93.7387 119.67 95.7999C117.902 97.3789 115.655 98.319 113.29 98.4699C111.71 108.61 110.89 129.14 110.54 141.57C110.49 143.42 110.45 145.11 110.42 146.57L123.24 144.36V138.5L125.24 137.56C135.103 132.95 143.106 125.125 147.935 115.368C152.764 105.61 154.133 94.5013 151.817 83.8636C149.501 73.2258 143.638 63.6914 135.189 56.8252C126.741 49.9589 116.209 46.1687 105.322 46.0766C94.4356 45.9845 83.8411 49.596 75.2775 56.3184C66.7139 63.0408 60.6899 72.4746 58.1943 83.0717C55.6986 93.6687 56.8796 104.799 61.5433 114.637C66.2069 124.474 74.0763 132.434 83.8598 137.21L83.8498 137.18ZM91.6998 93.1199C91.3314 91.2431 90.7231 89.4215 89.8898 87.6999C88.3398 84.8999 86.8898 84.7599 86.0898 85.4899C85.9112 85.6499 85.7708 85.848 85.6791 86.0696C85.5873 86.2912 85.5466 86.5305 85.5598 86.7699C85.7745 88.4733 86.5732 90.0495 87.8198 91.2299C88.9102 92.2114 90.2548 92.8664 91.6998 93.1199ZM114.25 93.1199C115.694 92.8643 117.038 92.2096 118.13 91.2299C119.373 90.0485 120.169 88.4722 120.38 86.7699C120.393 86.5305 120.352 86.2912 120.261 86.0696C120.169 85.848 120.028 85.6499 119.85 85.4899C119.06 84.7599 117.6 84.8999 116.05 87.6999C115.216 89.4204 114.611 91.2425 114.25 93.1199V93.1199Z" fill="#E9E9E9"/>
<path d="M168.71 85.1998C168.716 84.6482 168.832 84.1034 169.049 83.5963C169.266 83.0892 169.581 82.6299 169.975 82.2445C170.37 81.8591 170.837 81.5553 171.349 81.3503C171.861 81.1453 172.408 81.0432 172.96 81.0498H195.96C197.061 81.0498 198.116 81.487 198.894 82.2653C199.673 83.0436 200.11 84.0991 200.11 85.1998C200.11 86.3004 199.673 87.356 198.894 88.1343C198.116 88.9126 197.061 89.3498 195.96 89.3498H172.96C172.408 89.3564 171.861 89.2543 171.349 89.0493C170.837 88.8443 170.37 88.5404 169.975 88.1551C169.581 87.7697 169.266 87.3104 169.049 86.8033C168.832 86.2962 168.716 85.7513 168.71 85.1998V85.1998Z" fill="#E9E9E9"/>
<path d="M99.46 30.8698C98.9084 30.8764 98.3609 30.7743 97.8488 30.5693C97.3367 30.3643 96.87 30.0605 96.4754 29.6751C96.0807 29.2897 95.7659 28.8304 95.5487 28.3233C95.3316 27.8162 95.2165 27.2714 95.21 26.7198V4.24982C95.21 3.12265 95.6577 2.04166 96.4548 1.24463C97.2518 0.447601 98.3328 -0.000181198 99.46 -0.000181198C100.587 -0.000181198 101.668 0.447601 102.465 1.24463C103.262 2.04166 103.71 3.12265 103.71 4.24982V26.7298C103.694 27.842 103.238 28.9025 102.441 29.6787C101.644 30.4548 100.572 30.8832 99.46 30.8698Z" fill="#E9E9E9"/>
<path d="M12.15 84.8699H35.15C36.2506 84.8699 37.3062 85.3072 38.0845 86.0854C38.8628 86.8637 39.3 87.9193 39.3 89.0199C39.3 90.1206 38.8628 91.1762 38.0845 91.9544C37.3062 92.7327 36.2506 93.1699 35.15 93.1699H12.15C11.0493 93.1699 9.99378 92.7327 9.21551 91.9544C8.43723 91.1762 8 90.1206 8 89.0199C8 87.9193 8.43723 86.8637 9.21551 86.0854C9.99378 85.3072 11.0493 84.8699 12.15 84.8699Z" fill="#E9E9E9"/>
<path d="M28.3902 148.31L46.7502 134.75C47.6539 134.065 48.7912 133.766 49.9148 133.915C51.0385 134.065 52.0575 134.653 52.7502 135.55C53.0869 135.982 53.3332 136.477 53.4745 137.006C53.6158 137.535 53.6492 138.087 53.5727 138.629C53.4961 139.171 53.3113 139.692 53.0291 140.161C52.747 140.631 52.3732 141.038 51.9302 141.36L33.5202 154.87C32.6182 155.534 31.4936 155.822 30.3836 155.672C29.2735 155.523 28.2648 154.949 27.5702 154.07C27.2415 153.64 27.0017 153.148 26.8648 152.624C26.728 152.1 26.6968 151.554 26.7731 151.018C26.8495 150.482 27.0318 149.966 27.3094 149.501C27.587 149.036 27.9544 148.631 28.3902 148.31V148.31Z" fill="#E9E9E9"/>
<path d="M162.12 134.75L180.48 148.31C180.923 148.631 181.297 149.039 181.579 149.508C181.861 149.977 182.046 150.499 182.123 151.041C182.199 151.583 182.166 152.135 182.024 152.664C181.883 153.193 181.637 153.688 181.3 154.12C180.604 155.013 179.586 155.597 178.464 155.746C177.342 155.896 176.206 155.599 175.3 154.92L157.03 141.36C156.587 141.038 156.213 140.63 155.931 140.161C155.649 139.692 155.464 139.171 155.388 138.629C155.311 138.087 155.345 137.535 155.486 137.006C155.627 136.477 155.873 135.981 156.21 135.55C156.901 134.678 157.902 134.108 159.004 133.959C160.106 133.809 161.223 134.093 162.12 134.75V134.75Z" fill="#E9E9E9"/>
<path d="M52.52 44.1201C51.4004 44.1237 50.3238 43.6894 49.52 42.9101L33.23 27.0201C32.8362 26.6405 32.523 26.1853 32.3091 25.6819C32.0951 25.1784 31.9849 24.6371 31.9849 24.0901C31.9849 23.5431 32.0951 23.0018 32.3091 22.4983C32.523 21.9949 32.8362 21.5397 33.23 21.1601C34.0353 20.3829 35.1108 19.9485 36.23 19.9485C37.3492 19.9485 38.4247 20.3829 39.23 21.1601L55.51 37.0401C55.904 37.4206 56.2175 37.8766 56.4315 38.3808C56.6456 38.8851 56.7559 39.4273 56.7559 39.9751C56.7559 40.5229 56.6456 41.0651 56.4315 41.5693C56.2175 42.0736 55.904 42.5296 55.51 42.9101C54.7098 43.6888 53.6365 44.1232 52.52 44.1201V44.1201Z" fill="#E9E9E9"/>
<path d="M156.69 42.8699C155.883 43.6425 154.808 44.0737 153.69 44.0737C152.573 44.0737 151.498 43.6425 150.69 42.8699C150.296 42.4894 149.983 42.0334 149.769 41.5292C149.555 41.0249 149.444 40.4827 149.444 39.9349C149.444 39.3871 149.555 38.8449 149.769 38.3407C149.983 37.8364 150.296 37.3805 150.69 36.9999L166.97 21.1199C167.776 20.3427 168.851 19.9084 169.97 19.9084C171.089 19.9084 172.165 20.3427 172.97 21.1199C173.362 21.501 173.673 21.9566 173.885 22.4598C174.097 22.9631 174.207 23.5037 174.207 24.0499C174.207 24.5961 174.097 25.1368 173.885 25.64C173.673 26.1432 173.362 26.5988 172.97 26.9799L156.69 42.8699Z" fill="#E9E9E9"/>
<path d="M3.08 245V216.8H8.2V240.64H21.72V245H3.08ZM24.7409 221.24V216.36H30.3409V221.24H24.7409ZM25.0609 245V225.44H30.0609V245H25.0609ZM44.3763 252.6C42.5629 252.6 40.8563 252.387 39.2563 251.96C37.6829 251.56 36.2963 250.933 35.0963 250.08L36.5363 246.6C37.6563 247.347 38.8563 247.893 40.1363 248.24C41.4163 248.613 42.6963 248.8 43.9763 248.8C47.5496 248.8 49.3363 247.08 49.3363 243.64V240.96C48.7763 242.053 47.9096 242.92 46.7363 243.56C45.5896 244.2 44.3096 244.52 42.8963 244.52C41.1363 244.52 39.6029 244.12 38.2963 243.32C36.9896 242.493 35.9763 241.347 35.2563 239.88C34.5363 238.413 34.1763 236.707 34.1763 234.76C34.1763 232.813 34.5363 231.12 35.2563 229.68C35.9763 228.213 36.9896 227.08 38.2963 226.28C39.6029 225.453 41.1363 225.04 42.8963 225.04C44.3629 225.04 45.6696 225.373 46.8163 226.04C47.9629 226.68 48.8029 227.547 49.3363 228.64V225.44H54.2163V243.04C54.2163 246.213 53.3763 248.6 51.6963 250.2C50.0163 251.8 47.5763 252.6 44.3763 252.6ZM44.2563 240.72C45.8029 240.72 47.0296 240.187 47.9363 239.12C48.8429 238.053 49.2963 236.6 49.2963 234.76C49.2963 232.92 48.8429 231.48 47.9363 230.44C47.0296 229.373 45.8029 228.84 44.2563 228.84C42.7096 228.84 41.4829 229.373 40.5763 230.44C39.6696 231.48 39.2163 232.92 39.2163 234.76C39.2163 236.6 39.6696 238.053 40.5763 239.12C41.4829 240.187 42.7096 240.72 44.2563 240.72ZM59.3969 245V216.8H64.3969V228.28C65.0635 227.213 65.9569 226.413 67.0769 225.88C68.1969 225.32 69.4369 225.04 70.7969 225.04C75.4102 225.04 77.7169 227.72 77.7169 233.08V245H72.7169V233.32C72.7169 231.8 72.4235 230.693 71.8369 230C71.2769 229.307 70.3969 228.96 69.1969 228.96C67.7302 228.96 66.5569 229.427 65.6769 230.36C64.8235 231.267 64.3969 232.48 64.3969 234V245H59.3969ZM91.7553 245.4C86.582 245.4 83.9953 242.84 83.9953 237.72V229.2H80.2353V225.44H83.9953V219.6H88.9953V225.44H94.9153V229.2H88.9953V237.44C88.9953 238.72 89.2753 239.68 89.8353 240.32C90.3953 240.96 91.302 241.28 92.5553 241.28C92.9286 241.28 93.3153 241.24 93.7153 241.16C94.1153 241.053 94.5286 240.947 94.9553 240.84L95.7153 244.52C95.2353 244.787 94.622 245 93.8753 245.16C93.1553 245.32 92.4486 245.4 91.7553 245.4ZM109.488 245V216.8H113.768L123.768 235.24L133.728 216.8H137.928V245H133.288V226L125.208 240.72H122.208L114.128 226.08V245H109.488ZM152.575 245.4C150.548 245.4 148.788 244.987 147.295 244.16C145.801 243.333 144.641 242.16 143.815 240.64C142.988 239.093 142.575 237.28 142.575 235.2C142.575 233.12 142.988 231.32 143.815 229.8C144.641 228.28 145.801 227.107 147.295 226.28C148.788 225.453 150.548 225.04 152.575 225.04C154.601 225.04 156.361 225.453 157.855 226.28C159.348 227.107 160.508 228.28 161.335 229.8C162.161 231.32 162.575 233.12 162.575 235.2C162.575 237.28 162.161 239.093 161.335 240.64C160.508 242.16 159.348 243.333 157.855 244.16C156.361 244.987 154.601 245.4 152.575 245.4ZM152.575 241.6C154.068 241.6 155.268 241.067 156.175 240C157.081 238.907 157.535 237.307 157.535 235.2C157.535 233.067 157.081 231.48 156.175 230.44C155.268 229.373 154.068 228.84 152.575 228.84C151.081 228.84 149.881 229.373 148.975 230.44C148.068 231.48 147.615 233.067 147.615 235.2C147.615 237.307 148.068 238.907 148.975 240C149.881 241.067 151.081 241.6 152.575 241.6ZM174.222 245.4C172.515 245.4 171.008 244.987 169.702 244.16C168.422 243.333 167.422 242.16 166.702 240.64C165.982 239.093 165.622 237.28 165.622 235.2C165.622 233.093 165.982 231.293 166.702 229.8C167.422 228.28 168.422 227.107 169.702 226.28C171.008 225.453 172.515 225.04 174.222 225.04C175.608 225.04 176.862 225.347 177.982 225.96C179.102 226.573 179.942 227.387 180.502 228.4V216.8H185.502V245H180.622V241.76C180.088 242.88 179.248 243.773 178.102 244.44C176.955 245.08 175.662 245.4 174.222 245.4ZM175.622 241.6C177.115 241.6 178.315 241.067 179.222 240C180.128 238.907 180.582 237.307 180.582 235.2C180.582 233.067 180.128 231.48 179.222 230.44C178.315 229.373 177.115 228.84 175.622 228.84C174.128 228.84 172.928 229.373 172.022 230.44C171.115 231.48 170.662 233.067 170.662 235.2C170.662 237.307 171.115 238.907 172.022 240C172.928 241.067 174.128 241.6 175.622 241.6ZM200.326 245.4C198.113 245.4 196.206 244.987 194.606 244.16C193.006 243.333 191.766 242.16 190.886 240.64C190.033 239.12 189.606 237.32 189.606 235.24C189.606 233.213 190.019 231.44 190.846 229.92C191.699 228.4 192.859 227.213 194.326 226.36C195.819 225.48 197.513 225.04 199.406 225.04C202.179 225.04 204.366 225.92 205.966 227.68C207.593 229.44 208.406 231.84 208.406 234.88V236.36H194.406C194.779 239.853 196.779 241.6 200.406 241.6C201.499 241.6 202.593 241.44 203.686 241.12C204.779 240.773 205.779 240.24 206.686 239.52L208.086 242.88C207.153 243.653 205.979 244.267 204.566 244.72C203.153 245.173 201.739 245.4 200.326 245.4ZM199.606 228.44C198.139 228.44 196.953 228.893 196.046 229.8C195.139 230.707 194.593 231.933 194.406 233.48H204.246C204.139 231.853 203.686 230.613 202.886 229.76C202.113 228.88 201.019 228.44 199.606 228.44Z" fill="#E9E9E9"/>
</svg>
