<svg width="217" height="80" viewBox="0 0 217 80" fill="none" xmlns="http://www.w3.org/2000/svg">
<g filter="url(#filter0_d)">
<path fill-rule="evenodd" clip-rule="evenodd" d="M32.1166 20C25.4248 20 20 25.4248 20 32.1166V41.7678C20 47.5054 23.9881 52.3116 29.3435 53.5656V59.133C29.3435 59.831 30.1272 60.2418 30.7012 59.8449L39.3205 53.8844H79.4724C86.1642 53.8844 91.589 48.4596 91.589 41.7678V32.1166C91.589 25.4248 86.1642 20 79.4724 20H32.1166Z" fill="white"/>
<path d="M93.7925 23.1358H105.437C109.046 23.1358 111.747 23.6291 113.538 24.6157C115.356 25.5764 116.264 27.2122 116.264 29.523C116.264 33.0801 114.122 35.2091 109.838 35.9101V35.988C115.031 36.6371 117.628 38.896 117.628 42.7647C117.628 45.5948 116.563 47.581 114.434 48.7234C112.305 49.8399 109.241 50.3981 105.243 50.3981H93.7925V49.6582H96.324V23.8758H93.7925V23.1358ZM103.918 36.6112V49.6582H105.749C107.177 49.6582 108.177 49.1648 108.748 48.1782C109.319 47.1916 109.605 45.7376 109.605 43.8162V41.7521C109.605 40.0384 109.254 38.7532 108.553 37.8964C107.852 37.0396 106.606 36.6112 104.814 36.6112H103.918ZM103.918 23.8758V35.8712H104.931C106.281 35.8712 107.216 35.4688 107.735 34.6639C108.28 33.833 108.553 32.5738 108.553 30.8861V29.0556C108.553 27.1343 108.319 25.7971 107.852 25.0442C107.385 24.2652 106.489 23.8758 105.165 23.8758H103.918Z" fill="#B094FF"/>
<path d="M129.279 50.7876C125.93 50.7876 123.412 49.9308 121.724 48.2171C120.062 46.4776 119.231 44.0759 119.231 41.0121C119.231 37.9224 120.166 35.5596 122.035 33.9239C123.931 32.2881 126.333 31.4703 129.241 31.4703C135.134 31.4703 137.964 34.4302 137.731 40.35H126.748V41.8689C126.748 44.4134 127.073 46.3347 127.722 47.633C128.371 48.9312 129.5 49.5803 131.11 49.5803C134.122 49.5803 136.095 47.9705 137.03 44.7509L137.731 44.8678C137.237 46.7372 136.342 48.1912 135.044 49.2298C133.771 50.2683 131.85 50.7876 129.279 50.7876ZM126.787 39.5711H130.798V37.6627C130.798 35.5596 130.669 34.1316 130.409 33.3786C130.175 32.5997 129.682 32.2103 128.929 32.2103C128.202 32.2103 127.657 32.6257 127.293 33.4565C126.956 34.2614 126.787 35.6635 126.787 37.6627V39.5711Z" fill="#B094FF"/>
<path d="M141.066 44.8288V32.5608H138.924V31.8597H141.066V26.8357L148.31 25.0442V31.8597H153.373V32.5608H148.31V45.6856C148.31 46.906 148.426 47.8017 148.66 48.3729C148.92 48.9441 149.439 49.2298 150.218 49.2298C150.997 49.2298 151.672 48.8403 152.243 48.0614C152.84 47.2824 153.23 46.2179 153.412 44.8678L154.074 44.9457C153.866 46.7372 153.295 48.1652 152.36 49.2298C151.425 50.2683 149.88 50.7876 147.725 50.7876C145.57 50.7876 143.922 50.3592 142.779 49.5024C141.637 48.6456 141.066 47.0877 141.066 44.8288Z" fill="#B094FF"/>
<path d="M165.351 32.1713C164.208 32.1713 163.39 32.7944 162.897 34.0407C162.404 35.287 162.157 37.3512 162.157 40.2332V42.2584C162.157 44.8288 162.443 46.6723 163.014 47.7887C163.585 48.9052 164.637 49.4634 166.169 49.4634C167.7 49.4634 168.921 48.9441 169.829 47.9056C170.738 46.867 171.322 45.6856 171.582 44.3615L172.283 44.4394C171.79 46.6723 170.881 48.2821 169.557 49.2687C168.207 50.2813 166.35 50.7876 163.988 50.7876C160.976 50.7876 158.665 49.9827 157.055 48.3729C155.445 46.7372 154.64 44.3615 154.64 41.2458C154.64 38.1041 155.549 35.6895 157.367 34.0018C159.21 32.3141 161.768 31.4703 165.039 31.4703C167.35 31.4703 169.115 31.9246 170.336 32.8334C171.556 33.7162 172.166 34.8326 172.166 36.1828C172.166 37.5329 171.868 38.5195 171.27 39.1427C170.699 39.7658 169.894 40.0774 168.856 40.0774C167.843 40.0774 167.025 39.8048 166.402 39.2595C165.779 38.7143 165.468 37.9094 165.468 36.8449C165.468 36.3775 165.532 35.9101 165.662 35.4428H166.947C167.129 34.9235 167.22 34.4562 167.22 34.0407C167.22 32.7944 166.597 32.1713 165.351 32.1713Z" fill="#B094FF"/>
<path d="M172.892 21.1885H182.278V35.4428C182.693 34.2484 183.33 33.2878 184.186 32.5608C185.043 31.8338 186.341 31.4703 188.081 31.4703C192.105 31.4703 194.118 33.6383 194.118 37.9743V49.6971H196.299V50.3981H185.277V49.6971H186.874V37.0396C186.874 35.4817 186.77 34.4821 186.562 34.0407C186.354 33.5734 185.978 33.3397 185.433 33.3397C184.602 33.3397 183.862 33.8849 183.213 34.9754C182.59 36.0659 182.278 37.3901 182.278 38.948V49.6971H183.953V50.3981H172.892V49.6971H175.034V21.8895H172.892V21.1885Z" fill="#B094FF"/>
<path d="M42.8974 31.0863L37.0746 44.3885H34.6149L28.792 31.0863H31.3019L35.8698 41.7532L40.5382 31.0863H42.8974Z" fill="#111111"/>
<path d="M50.4759 44.5391C49.154 44.5391 47.966 44.2463 46.9119 43.6607C45.8577 43.075 45.0295 42.2719 44.4271 41.2512C43.8415 40.2138 43.5486 39.0425 43.5486 37.7374C43.5486 36.4323 43.8415 35.2694 44.4271 34.2487C45.0295 33.2113 45.8577 32.4081 46.9119 31.8392C47.966 31.2536 49.154 30.9608 50.4759 30.9608C51.7977 30.9608 52.9774 31.2536 54.0148 31.8392C55.0689 32.4081 55.8888 33.2113 56.4745 34.2487C57.0768 35.2694 57.378 36.4323 57.378 37.7374C57.378 39.0425 57.0768 40.2138 56.4745 41.2512C55.8888 42.2719 55.0689 43.075 54.0148 43.6607C52.9774 44.2463 51.7977 44.5391 50.4759 44.5391ZM50.4759 42.4308C51.3292 42.4308 52.0906 42.2384 52.7598 41.8536C53.4459 41.452 53.9813 40.8998 54.3662 40.1971C54.751 39.4776 54.9434 38.6577 54.9434 37.7374C54.9434 36.8171 54.751 36.0056 54.3662 35.3028C53.9813 34.5833 53.4459 34.0312 52.7598 33.6463C52.0906 33.2615 51.3292 33.069 50.4759 33.069C49.6225 33.069 48.8528 33.2615 48.1668 33.6463C47.4975 34.0312 46.9621 34.5833 46.5605 35.3028C46.1756 36.0056 45.9832 36.8171 45.9832 37.7374C45.9832 38.6577 46.1756 39.4776 46.5605 40.1971C46.9621 40.8998 47.4975 41.452 48.1668 41.8536C48.8528 42.2384 49.6225 42.4308 50.4759 42.4308Z" fill="#111111"/>
<path d="M68.1896 43.6105C67.8383 43.9117 67.4032 44.1459 66.8845 44.3132C66.3658 44.4638 65.8304 44.5391 65.2782 44.5391C63.9396 44.5391 62.9022 44.1794 62.166 43.4599C61.4297 42.7404 61.0616 41.7114 61.0616 40.3728V33.069H58.8027V31.0863H61.0616V28.1748H63.4711V31.0863H67.2861V33.069H63.4711V40.2724C63.4711 40.9919 63.6468 41.544 63.9982 41.9289C64.3663 42.3137 64.885 42.5061 65.5543 42.5061C66.2905 42.5061 66.918 42.297 67.4367 41.8787L68.1896 43.6105Z" fill="#111111"/>
<path d="M82.6837 37.8127C82.6837 37.9967 82.667 38.2394 82.6335 38.5406H71.8411C71.9917 39.7118 72.502 40.6572 73.3721 41.3767C74.2589 42.0795 75.3549 42.4308 76.6601 42.4308C78.2496 42.4308 79.5297 41.8954 80.5002 40.8245L81.8304 42.3807C81.228 43.0834 80.4751 43.6189 79.5715 43.987C78.6847 44.3551 77.6891 44.5391 76.5848 44.5391C75.1792 44.5391 73.9327 44.2547 72.8451 43.6858C71.7574 43.1001 70.9125 42.2886 70.3101 41.2512C69.7245 40.2138 69.4316 39.0425 69.4316 37.7374C69.4316 36.449 69.7161 35.2861 70.285 34.2487C70.8706 33.2113 71.6654 32.4081 72.6694 31.8392C73.69 31.2536 74.8362 30.9608 76.1079 30.9608C77.3795 30.9608 78.509 31.2536 79.4962 31.8392C80.5002 32.4081 81.2782 33.2113 81.8304 34.2487C82.3993 35.2861 82.6837 36.4741 82.6837 37.8127ZM76.1079 32.9937C74.9533 32.9937 73.9829 33.3451 73.1964 34.0479C72.4267 34.7507 71.975 35.6709 71.8411 36.8087H80.3747C80.2408 35.6877 79.7807 34.7758 78.9942 34.073C78.2245 33.3535 77.2624 32.9937 76.1079 32.9937Z" fill="#111111"/>
</g>
<defs>
<filter id="filter0_d" x="0" y="0" width="216.299" height="80" filterUnits="userSpaceOnUse" color-interpolation-filters="sRGB">
<feFlood flood-opacity="0" result="BackgroundImageFix"/>
<feColorMatrix in="SourceAlpha" type="matrix" values="0 0 0 0 0 0 0 0 0 0 0 0 0 0 0 0 0 0 127 0"/>
<feOffset/>
<feGaussianBlur stdDeviation="10"/>
<feColorMatrix type="matrix" values="0 0 0 0 0.508333 0 0 0 0 0.508333 0 0 0 0 0.508333 0 0 0 0.5 0"/>
<feBlend mode="normal" in2="BackgroundImageFix" result="effect1_dropShadow"/>
<feBlend mode="normal" in="SourceGraphic" in2="effect1_dropShadow" result="shape"/>
</filter>
</defs>
</svg>
