<svg width="24" height="23" viewBox="0 0 24 23" fill="none" xmlns="http://www.w3.org/2000/svg">
<path d="M21.1475 20.9712H1.64746V6.82837H7.6709L9.19434 5.45828L9.14746 5.41408H1.64746C1.22559 5.41408 0.870117 5.55404 0.581055 5.83395C0.291992 6.11386 0.147461 6.44533 0.147461 6.82837V20.9712C0.147461 21.2364 0.213867 21.4758 0.34668 21.6894C0.479492 21.903 0.65918 22.0725 0.885742 22.1977C1.1123 22.3229 1.36621 22.3855 1.64746 22.3855H21.1475C21.5537 22.3855 21.9053 22.2492 22.2021 21.9767C22.499 21.7042 22.6475 21.369 22.6475 20.9712V9.92212L21.1475 11.2701V20.9712ZM6.33496 15.3141H7.8584C8.20215 13.4578 8.96387 11.7784 10.1436 10.2757C11.3232 8.77301 12.8076 7.58708 14.5967 6.71788C16.3857 5.84868 18.3037 5.41408 20.3506 5.41408C20.4912 5.41408 20.749 5.42145 21.124 5.43618L18.3818 8.02167C18.335 8.06587 18.2959 8.11375 18.2646 8.16531C18.2334 8.21688 18.21 8.27212 18.1943 8.33105C18.1787 8.38998 18.1709 8.45259 18.1709 8.51888C18.1709 8.58518 18.1787 8.64411 18.1943 8.69567C18.21 8.74723 18.2334 8.80248 18.2646 8.86141C18.2959 8.92033 18.335 8.9719 18.3818 9.01609C18.4443 9.08975 18.5225 9.14132 18.6162 9.17078C18.71 9.20025 18.8115 9.21498 18.9209 9.21498C18.9834 9.21498 19.0459 9.20761 19.1084 9.19288C19.1709 9.17815 19.2295 9.15605 19.2842 9.12658C19.3389 9.09712 19.3896 9.06029 19.4365 9.01609L23.8662 4.72904L19.4365 0.441987C19.2959 0.309398 19.1201 0.243103 18.9092 0.243103C18.6982 0.243103 18.5225 0.309398 18.3818 0.441987C18.2881 0.53038 18.2217 0.637188 18.1826 0.762411C18.1436 0.887634 18.1436 1.00917 18.1826 1.12703C18.2217 1.24489 18.2881 1.34801 18.3818 1.43641L21.1006 3.9998H20.3975C18.0693 3.9998 15.8936 4.49701 13.8701 5.49143C11.8467 6.48585 10.1748 7.84489 8.85449 9.56855C7.53418 11.2922 6.69434 13.2074 6.33496 15.3141Z" fill="white"/>
</svg>
