<svg width="25" height="24" viewBox="0 0 25 24" fill="none" xmlns="http://www.w3.org/2000/svg">
<path d="M12.5 0C5.87321 0 0.5 5.34883 0.5 11.9455C0.5 18.5423 5.87321 23.8911 12.5 23.8911C19.1268 23.8911 24.5 18.5423 24.5 11.9455C24.5 5.34883 19.1268 0 12.5 0ZM18.267 9.00449C18.275 9.12981 18.275 9.26046 18.275 9.38845C18.275 13.3027 15.2804 17.8117 9.80804 17.8117C8.12054 17.8117 6.55625 17.3237 5.23839 16.4838C5.47946 16.5104 5.70982 16.5211 5.95625 16.5211C7.34911 16.5211 8.62946 16.0518 9.65 15.2572C8.34286 15.2306 7.24464 14.3773 6.86964 13.2041C7.32768 13.2708 7.74018 13.2708 8.21161 13.1508C7.53855 13.0146 6.93359 12.6508 6.49951 12.1209C6.06542 11.5911 5.82898 10.9281 5.83036 10.2444V10.207C6.22411 10.4284 6.6875 10.5643 7.17232 10.583C6.76476 10.3126 6.43051 9.94629 6.19923 9.51652C5.96794 9.08674 5.84676 8.6068 5.84643 8.11924C5.84643 7.56729 5.99107 7.06333 6.25089 6.62604C6.99795 7.54152 7.93017 8.29026 8.98696 8.82361C10.0437 9.35696 11.2014 9.66297 12.3848 9.72175C11.9643 7.70861 13.475 6.07943 15.2911 6.07943C16.1482 6.07943 16.9196 6.43673 17.4634 7.01267C18.1357 6.88735 18.7786 6.63671 19.3518 6.30074C19.1295 6.98601 18.6634 7.56462 18.0446 7.92992C18.6446 7.86593 19.2232 7.70061 19.7589 7.46863C19.3545 8.06057 18.8482 8.58586 18.267 9.00449V9.00449Z" fill="white"/>
</svg>
