<svg width="177" height="40" viewBox="0 0 177 40" fill="none" xmlns="http://www.w3.org/2000/svg">
<path d="M0.594482 12.1166C0.594482 5.42478 6.01927 0 12.7111 0H60.0669C66.7587 0 72.1835 5.42479 72.1835 12.1166V21.7678C72.1835 28.4596 66.7587 33.8844 60.0669 33.8844H12.7111C6.01927 33.8844 0.594482 28.4596 0.594482 21.7678V12.1166Z" fill="white"/>
<path d="M9.93796 39.1331L9.93796 28.0076C9.93796 27.5296 10.3254 27.1421 10.8034 27.1421H26.8916C27.7403 27.1421 28.0819 28.2367 27.3838 28.7194L11.2957 39.8449C10.7216 40.2419 9.93796 39.831 9.93796 39.1331Z" fill="white"/>
<path d="M74.3871 3.13591H86.032C89.641 3.13591 92.3413 3.62923 94.1328 4.61586C95.9503 5.57654 96.859 7.21228 96.859 9.52309C96.859 13.0802 94.717 15.2092 90.4329 15.9103V15.9882C95.6257 16.6373 98.2221 18.8961 98.2221 22.7648C98.2221 25.5949 97.1576 27.5811 95.0285 28.7236C92.8995 29.84 89.8357 30.3983 85.8372 30.3983H74.3871V29.6583H76.9186V3.87589H74.3871V3.13591ZM84.5131 16.6113V29.6583H86.3435C87.7716 29.6583 88.7712 29.165 89.3424 28.1783C89.9136 27.1917 90.1992 25.7377 90.1992 23.8163V21.7522C90.1992 20.0386 89.8487 18.7533 89.1477 17.8965C88.4466 17.0397 87.2004 16.6113 85.4088 16.6113H84.5131ZM84.5131 3.87589V15.8713H85.5257C86.8758 15.8713 87.8105 15.4689 88.3298 14.664C88.875 13.8331 89.1477 12.5739 89.1477 10.8862V9.05573C89.1477 7.13439 88.914 5.79723 88.4466 5.04427C87.9793 4.26535 87.0835 3.87589 85.7593 3.87589H84.5131Z" fill="#BEA7FF"/>
<path d="M109.874 30.7877C106.525 30.7877 104.006 29.9309 102.318 28.2173C100.657 26.4777 99.8259 24.076 99.8259 21.0122C99.8259 17.9225 100.761 15.5598 102.63 13.924C104.525 12.2883 106.927 11.4704 109.835 11.4704C115.729 11.4704 118.559 14.4303 118.325 20.3501H107.343V21.869C107.343 24.4135 107.667 26.3349 108.316 27.6331C108.965 28.9313 110.095 29.5804 111.705 29.5804C114.716 29.5804 116.69 27.9706 117.624 24.7511L118.325 24.8679C117.832 26.7373 116.936 28.1913 115.638 29.2299C114.366 30.2684 112.444 30.7877 109.874 30.7877ZM107.381 19.5712H111.393V17.6628C111.393 15.5598 111.263 14.1317 111.003 13.3788C110.77 12.5998 110.276 12.2104 109.524 12.2104C108.797 12.2104 108.251 12.6258 107.888 13.4567C107.55 14.2615 107.381 15.6636 107.381 17.6628V19.5712Z" fill="#BEA7FF"/>
<path d="M121.66 24.8289V12.5609H119.518V11.8599H121.66V6.8358L128.904 5.04427V11.8599H133.967V12.5609H128.904V25.6858C128.904 26.9061 129.021 27.8018 129.255 28.3731C129.514 28.9443 130.034 29.2299 130.813 29.2299C131.591 29.2299 132.266 28.8404 132.838 28.0615C133.435 27.2826 133.824 26.218 134.006 24.8679L134.668 24.9458C134.46 26.7373 133.889 28.1653 132.955 29.2299C132.02 30.2684 130.475 30.7877 128.32 30.7877C126.165 30.7877 124.516 30.3593 123.374 29.5025C122.231 28.6457 121.66 27.0878 121.66 24.8289Z" fill="#BEA7FF"/>
<path d="M145.945 12.1714C144.803 12.1714 143.985 12.7946 143.492 14.0408C142.998 15.2871 142.752 17.3513 142.752 20.2333V22.2585C142.752 24.829 143.037 26.6724 143.608 27.7889C144.18 28.9053 145.231 29.4635 146.763 29.4635C148.295 29.4635 149.515 28.9443 150.424 27.9057C151.333 26.8671 151.917 25.6858 152.177 24.3616L152.878 24.4395C152.384 26.6724 151.476 28.2822 150.151 29.2688C148.801 30.2814 146.945 30.7877 144.582 30.7877C141.57 30.7877 139.259 29.9828 137.65 28.3731C136.04 26.7373 135.235 24.3616 135.235 21.2459C135.235 18.1042 136.144 15.6896 137.961 14.0019C139.805 12.3142 142.362 11.4704 145.634 11.4704C147.944 11.4704 149.71 11.9248 150.93 12.8335C152.151 13.7163 152.761 14.8328 152.761 16.1829C152.761 17.533 152.462 18.5197 151.865 19.1428C151.294 19.7659 150.489 20.0775 149.45 20.0775C148.438 20.0775 147.62 19.8049 146.997 19.2596C146.374 18.7144 146.062 17.9095 146.062 16.845C146.062 16.3776 146.127 15.9103 146.257 15.4429H147.542C147.724 14.9236 147.815 14.4563 147.815 14.0408C147.815 12.7946 147.192 12.1714 145.945 12.1714Z" fill="#BEA7FF"/>
<path d="M153.487 1.1886H162.873V15.4429C163.288 14.2486 163.924 13.2879 164.781 12.5609C165.638 11.8339 166.936 11.4704 168.676 11.4704C172.7 11.4704 174.712 13.6384 174.712 17.9744V29.6972H176.893V30.3983H165.871V29.6972H167.468V17.0397C167.468 15.4819 167.364 14.4822 167.157 14.0408C166.949 13.5735 166.572 13.3398 166.027 13.3398C165.196 13.3398 164.456 13.8851 163.807 14.9756C163.184 16.0661 162.873 17.3902 162.873 18.9481V29.6972H164.547V30.3983H153.487V29.6972H155.629V1.88963H153.487V1.1886Z" fill="#BEA7FF"/>
<path d="M23.4921 11.0863L17.6692 24.3885H15.2095L9.38663 11.0863H11.8965L16.4645 21.7532L21.1328 11.0863H23.4921Z" fill="#111111"/>
<path d="M31.0705 24.5391C29.7486 24.5391 28.5606 24.2463 27.5065 23.6607C26.4524 23.075 25.6241 22.2719 25.0217 21.2512C24.4361 20.2138 24.1433 19.0425 24.1433 17.7374C24.1433 16.4323 24.4361 15.2694 25.0217 14.2487C25.6241 13.2113 26.4524 12.4081 27.5065 11.8392C28.5606 11.2536 29.7486 10.9608 31.0705 10.9608C32.3924 10.9608 33.572 11.2536 34.6094 11.8392C35.6636 12.4081 36.4835 13.2113 37.0691 14.2487C37.6715 15.2694 37.9726 16.4323 37.9726 17.7374C37.9726 19.0425 37.6715 20.2138 37.0691 21.2512C36.4835 22.2719 35.6636 23.075 34.6094 23.6607C33.572 24.2463 32.3924 24.5391 31.0705 24.5391ZM31.0705 22.4309C31.9239 22.4309 32.6852 22.2384 33.3545 21.8536C34.0405 21.452 34.576 20.8998 34.9608 20.1971C35.3456 19.4776 35.5381 18.6577 35.5381 17.7374C35.5381 16.8171 35.3456 16.0056 34.9608 15.3028C34.576 14.5833 34.0405 14.0312 33.3545 13.6463C32.6852 13.2615 31.9239 13.069 31.0705 13.069C30.2172 13.069 29.4475 13.2615 28.7614 13.6463C28.0921 14.0312 27.5567 14.5833 27.1551 15.3028C26.7703 16.0056 26.5778 16.8171 26.5778 17.7374C26.5778 18.6577 26.7703 19.4776 27.1551 20.1971C27.5567 20.8998 28.0921 21.452 28.7614 21.8536C29.4475 22.2384 30.2172 22.4309 31.0705 22.4309Z" fill="#111111"/>
<path d="M48.7843 23.6105C48.4329 23.9117 47.9979 24.1459 47.4791 24.3132C46.9604 24.4638 46.425 24.5391 45.8728 24.5391C44.5342 24.5391 43.4968 24.1794 42.7606 23.4599C42.0244 22.7404 41.6563 21.7114 41.6563 20.3728V13.069H39.3974V11.0863H41.6563V8.1748H44.0657V11.0863H47.8807V13.069H44.0657V20.2724C44.0657 20.9919 44.2414 21.544 44.5928 21.9289C44.9609 22.3137 45.4796 22.5061 46.1489 22.5061C46.8852 22.5061 47.5126 22.297 48.0313 21.8787L48.7843 23.6105Z" fill="#111111"/>
<path d="M63.2784 17.8127C63.2784 17.9967 63.2616 18.2394 63.2282 18.5406H52.4357C52.5863 19.7118 53.0967 20.6572 53.9668 21.3767C54.8536 22.0795 55.9496 22.4309 57.2547 22.4309C58.8443 22.4309 60.1243 21.8954 61.0948 20.8245L62.425 22.3807C61.8226 23.0834 61.0697 23.6189 60.1661 23.987C59.2793 24.3551 58.2837 24.5391 57.1794 24.5391C55.7739 24.5391 54.5273 24.2547 53.4397 23.6858C52.3521 23.1001 51.5071 22.2886 50.9047 21.2512C50.3191 20.2138 50.0263 19.0425 50.0263 17.7374C50.0263 16.449 50.3107 15.2861 50.8796 14.2487C51.4653 13.2113 52.2601 12.4081 53.264 11.8392C54.2847 11.2536 55.4309 10.9608 56.7025 10.9608C57.9742 10.9608 59.1036 11.2536 60.0908 11.8392C61.0948 12.4081 61.8728 13.2113 62.425 14.2487C62.9939 15.2861 63.2784 16.4741 63.2784 17.8127ZM56.7025 12.9937C55.548 12.9937 54.5775 13.3451 53.7911 14.0479C53.0214 14.7507 52.5696 15.6709 52.4357 16.8087H60.9693C60.8354 15.6877 60.3753 14.7758 59.5889 14.073C58.8192 13.3535 57.8571 12.9937 56.7025 12.9937Z" fill="#111111"/>
</svg>
